<?xml version="1.0" encoding="UTF-8"?>
<svg width="1151px" height="331px" viewBox="0 0 1151 331" version="1.1" xmlns="http://www.w3.org/2000/svg" xmlns:xlink="http://www.w3.org/1999/xlink">
    <title>Artboard</title>
    <g id="Artboard" stroke="none" stroke-width="1" fill="none" fill-rule="evenodd">
        <path d="M969.240703,16.9524434 L969.2403,22.7654434 L982.2823,22.7654434 L982.283089,18.3807477 L999.283089,18.3807477 L999.2823,22.7654434 L1015.93565,22.7657625 L1015.9353,32.6874434 L1046.40557,32.6877396 L1046.4053,49.0744434 L1046.6043,49.0744434 L1046.60497,35.1110322 L1078.9313,35.1104434 L1078.93152,26.529315 L1088.3243,26.5284434 L1088.32474,19.7668223 L1100.32474,19.7668223 L1100.3243,26.5284434 L1123.93152,26.529315 L1123.9313,46.1964434 L1123.9633,46.1964434 L1123.96346,38.3592681 L1145.96346,38.3592681 L1145.96346,48.3592681 L1138.9853,48.3584434 L1138.9853,53.5594434 L1141.45571,53.5601367 L1141.45571,61.5601367 L1138.9853,61.5594434 L1138.9853,97.0934434 L1145.87383,97.0939454 L1145.87383,157.093945 L1138.9853,157.093443 L1138.98541,157.196728 L1100.4543,157.196443 L1100.4543,157.655443 L1125.66406,157.656169 L1125.6633,163.838443 L1143.47524,163.839077 L1143.47524,181.839077 L1137.8373,181.838443 L1137.8373,185.637443 L1145.99539,185.637992 L1145.99539,189.637992 L1125.6633,189.637443 L1125.66406,199.656169 L1108.6313,199.655443 L1108.63171,214.09311 L1104.9093,214.092443 L1104.90999,238.035888 L1074.90999,238.035888 L1074.9093,232.039443 L1060.2513,232.039443 L1060.2513,244.427443 L1070.1736,244.427692 L1070.1736,258.427692 L1066.5233,258.427443 L1066.5233,263.435443 L1069.67995,263.436308 L1069.67995,268.436308 L1066.5233,268.435443 L1066.52381,268.491399 L1031.52381,268.491399 L1031.5233,258.427443 L1031.1736,258.427692 L1031.1733,244.600443 L1030.2515,244.600882 L1030.2513,242.280443 L1016.8343,242.280443 L1016.8343,255.851443 L1022.56502,255.852175 L1022.56502,270.852175 L1016.8343,270.851443 L1016.83487,271.022015 L1007.5743,271.021443 L1007.5743,277.224443 L1012.19991,277.225104 L1012.1993,282.780443 L1018.62854,282.781246 L1018.62854,304.781246 L1016.9253,304.780443 L1016.92579,307.810967 L1012.1183,307.810443 L1012.11926,310.894865 L1007.11926,310.894865 L1007.1183,307.810443 L1006.92579,307.810967 L1006.9253,304.780443 L1006.62854,304.781246 L1006.6283,300.238443 L974.7303,300.238443 L974.730625,305.629701 L944.730625,305.629701 L944.7303,300.238443 L944.7063,300.238443 L944.706819,313.265831 L931.1713,313.265443 L931.172263,317.931122 L914.172263,317.931122 L914.1713,313.265443 L896.2023,313.265443 L896.202417,319.658647 L850.202417,319.658647 L850.2023,313.265443 L823.706819,313.265831 L823.7063,300.238443 L819.5713,300.238443 L819.571524,304.514835 L799.8393,304.514443 L799.839362,312.859261 L790.1213,312.858443 L790.121604,319.028885 L763.121604,319.028885 L763.1213,312.858443 L762.839362,312.859261 L762.8393,304.514443 L762.571524,304.514835 L762.5713,300.238443 L762.235066,300.239155 L762.2343,299.452443 L759.5903,299.452443 L759.590841,306.621499 L742.8523,306.621443 L742.85298,308.63944 L722.8253,308.638443 L722.826,310.093742 L718.8963,310.093443 L718.897018,318.162323 L711.897018,318.162323 L711.8963,310.093443 L711.826,310.093742 L711.8253,306.621443 L682.8153,306.621443 L682.816077,308.525231 L669.816077,308.525231 L669.8153,306.621443 L644.590841,306.621499 L644.5903,301.026443 L621.336101,301.027412 L621.3353,299.452443 L621.2883,299.452443 L621.289097,315.334572 L601.0583,315.334443 L601.058585,320.418539 L586.058585,320.418539 L586.0583,315.334443 L585.9973,315.334443 L585.998229,317.960699 L569.998229,317.960699 L569.9973,315.334443 L554.0223,315.334443 L554.023205,320.391579 L520.023205,320.391579 L520.0223,315.334443 L508.9403,315.334443 L508.941046,317.684687 L493.8973,317.684443 L493.897529,320.191644 L476.897529,320.191644 L476.8973,315.334443 L455.289097,315.334572 L455.2883,302.629443 L431.2663,302.629443 L431.266853,306.060222 L408.6343,306.059443 L408.634909,308.146134 L392.634909,308.146134 L392.6343,306.059443 L366.8843,306.059443 L366.884904,320.468355 L358.884904,320.468355 L358.8843,311.558443 L353.67703,311.559259 L353.6763,306.059443 L317.266853,306.060222 L317.2663,302.629443 L316.945143,302.629461 L316.9443,299.452443 L313.3293,299.452443 L313.329686,320.65993 L286.329686,320.65993 L286.3293,305.707443 L260.4693,305.707443 L260.470021,313.699723 L226.4233,313.699443 L226.423675,318.044572 L179.423675,318.044572 L179.4233,314.120443 L178.7293,314.120443 L178.72937,314.557826 L164.6933,314.557443 L164.693557,319.506086 L157.693557,319.506086 L157.6933,314.557443 L140.72937,314.557826 L140.72937,308.557826 L149.7433,308.557443 L149.7433,298.093443 L133.0833,298.093443 L133.083946,304.581486 L127.083946,304.581486 L127.0833,298.093443 L127.005619,298.094111 L127.0053,291.389443 L113.068206,291.389755 L113.0673,261.001443 L72.9373,261.001443 L72.9381778,267.940464 L72.4393,267.940443 L72.4396517,290.669885 L67.4396517,290.669885 L67.4393,267.940443 L54.1403,267.940443 L54.1410901,277.565305 L39.5553,277.564443 L39.5553,279.937443 L39.7759819,279.938234 L39.7759819,292.938234 L28.8493,292.937443 L28.8497406,301.163862 L25.8497406,301.163862 L25.8493,286.343443 L4.55614071,286.343538 L4.55614071,274.343538 L11.2393,274.343443 L11.2393,270.369443 L9.06785234,270.369516 L9.06785234,262.369516 L16.9233,262.369443 L16.9236856,254.110207 L28.7773,254.109443 L28.7779958,251.763648 L37.5763,251.763443 L37.5772156,242.260956 L53.0093,242.260443 L53.0093,216.397443 L32.7293698,216.397941 L32.7293,193.057443 L20.7503,193.057443 L20.7513,213.654323 L8.24330002,213.653443 L8.2438526,218.872641 L3.2438526,218.872641 L3.24330002,213.653443 L2.75130002,213.654323 L2.75130002,186.654323 L2.93730002,186.653443 L2.93795107,160.057592 L23.5883,160.057443 L23.5883,113.996443 L15.40591,113.997059 L15.40591,93.9970589 L22.8613,93.9964434 L22.8622266,77.8494534 L25.0903,77.8494434 L25.0903,51.0684434 L4.26020017,51.0694225 L4.26020017,34.0694225 L36.4933,34.0684434 L36.4938361,25.4544171 L42.8273,25.4534434 L42.8276998,19.2914939 L52.8276998,19.2914939 L52.8273,29.1264434 L68.2612022,29.1268315 L68.2603,49.0744434 L68.4683,49.0744434 L68.4691646,40.0409875 L98.3243,40.0404434 L98.3247816,24.769288 L120.7793,24.7684434 L120.780184,21.5693332 L130.780184,21.5693332 L130.7793,24.7684434 L142.324782,24.769288 L142.3243,36.4314434 L173.7333,36.4314434 L173.733701,34.1962557 L204.3063,34.1954434 L204.30686,24.7425421 L220.0313,24.7424434 L220.032144,18.004102 L236.032144,18.004102 L236.0313,24.7424434 L252.0903,24.7424434 L252.090762,19.3623027 L298.090762,19.3623027 L298.0903,24.7424434 L324.30686,24.7425421 L324.3063,37.7204434 L329.6513,37.7204434 L329.651855,33.5073332 L346.3843,33.5064434 L346.385236,25.232706 L357.9263,25.2324434 L357.927278,17.9963288 L384.927278,17.9963288 L384.927278,35.9963288 L384.6513,35.9954434 L384.6513,38.3454434 L388.9123,38.3454434 L388.912344,33.4306949 L427.4313,33.4304434 L427.431365,26.8754671 L432.0633,26.8754434 L432.063398,17.7946146 L437.063398,17.7946146 L437.0633,26.8754434 L437.431365,26.8754671 L437.4313,33.4304434 L465.3203,33.4304434 L465.320359,30.5159096 L477.320359,30.5159096 L477.3203,33.4304434 L501.912344,33.4306949 L501.9123,35.9764434 L526.6543,35.9764434 L526.654301,21.64745 L548.9533,21.6474434 L548.954179,18.5374852 L563.954179,18.5374852 L563.9533,21.6474434 L580.654301,21.64745 L580.6543,25.8454434 L592.2873,25.8454434 L592.287728,18.6465161 L629.287728,18.6465161 L629.2873,25.8454434 L638.3763,25.8454434 L638.376677,20.7423614 L656.8883,20.7414434 L656.888998,17.8032391 L669.888998,17.8032391 L669.8883,20.7414434 L692.376677,20.7423614 L692.3763,36.5324434 L717.8513,36.5324434 L717.851828,32.9637736 L742.3953,32.9634434 L742.395914,29.8444848 L754.395914,29.8444848 L754.3953,32.9634434 L782.3203,32.9634434 L782.320417,18.5192177 L790.320417,18.5192177 L790.3203,26.3784434 L794.33543,26.3793151 L794.3353,32.9634434 L829.851828,32.9637736 L829.8513,36.5324434 L835.6483,36.5324434 L835.648788,18.3316028 L862.648788,18.3316028 L862.6483,32.6874434 L886.9353,32.6874434 L886.935647,22.7657625 L903.1913,22.7654434 L903.192225,21.1751441 L918.192225,21.1751441 L918.1913,22.7654434 L922.2403,22.7654434 L922.240703,16.9524434 L969.240703,16.9524434 Z M1050.21766,308.531653 L1050.21766,311.531653 L1047.21766,311.531653 L1047.21766,308.531653 L1050.21766,308.531653 Z M1098.24917,271.047422 L1098.2483,277.277443 L1128.30557,277.278415 L1128.3053,282.752443 L1135.43603,282.752486 L1135.43603,289.752486 L1120.43603,289.752486 L1120.4353,288.277443 L1110.5063,288.277443 L1110.50635,291.781107 L1098.2483,291.780443 L1098.24917,292.047422 L1092.4103,292.046443 L1092.4103,295.191443 L1093.94991,295.192287 L1093.94991,308.192287 L1079.94991,308.192287 L1079.9493,297.305443 L1074.41079,297.306427 L1074.41079,275.306427 L1083.2483,275.305443 L1083.24917,271.047422 L1098.24917,271.047422 Z M1031.86218,295.16624 L1031.86218,305.16624 L1028.86218,305.16624 L1028.86218,295.16624 L1031.86218,295.16624 Z M97.264447,297.922375 L97.264447,300.922375 L86.264447,300.922375 L86.264447,297.922375 L97.264447,297.922375 Z M1143.58607,287.3484 L1143.58607,293.3484 L1135.58607,293.3484 L1135.58607,287.3484 L1143.58607,287.3484 Z M1098.44253,248.834587 L1098.44253,267.834587 L1094.44253,267.834587 L1094.44253,248.834587 L1098.44253,248.834587 Z M1139.32939,250.352881 L1139.32939,258.352881 L1138.5233,258.352443 L1138.52347,263.471679 L1132.52347,263.471679 L1132.52347,256.471679 L1138.3293,256.471443 L1138.32939,250.352881 L1139.32939,250.352881 Z M1093.94044,242.070266 L1093.94044,246.070266 L1084.94044,246.070266 L1084.94044,242.070266 L1093.94044,242.070266 Z M1135.57226,219.977024 L1135.57226,245.977024 L1105.57226,245.977024 L1105.57226,219.977024 L1135.57226,219.977024 Z M25.6400188,223.56899 L25.6400188,227.56899 L3.64001884,227.56899 L3.64001884,223.56899 L25.6400188,223.56899 Z M20.5131634,130.431563 L20.5131634,141.431563 L13.5131634,141.431563 L13.5131634,130.431563 L20.5131634,130.431563 Z M42.4543,98.8494434 L42.4053,98.8494434 L42.4053,111.783443 L42.4543,111.783443 L42.4543,98.8494434 Z" id="Combined-Shape" fill="#000000" transform="translate(574.373343, 168.806187) rotate(2.000000) translate(-574.373343, -168.806187) "></path>
        <path d="M233,12 L233,19 L248,19 L248,13 L295,13 L295,19 L320,19 L320,32 L327,32 L327,27 L343,27 L343,19 L354,19 L354,12 L381,12 L381,32 L385,32 L385,27 L422,27 L422,21 L427,21 L427,12 L432,12 L432,27 L461,27 L461,24 L473,24 L473,27 L497,27 L497,30 L522,30 L522,15 L543,15 L543,12 L558,12 L558,15 L575,15 L575,20 L585,20 L585,12 L623,12 L623,20 L633,20 L633,15 L651,15 L651,12 L664,12 L664,15 L686,15 L686,30 L711,30 L711,27 L735,27 L735,24 L747,24 L747,27 L775,27 L775,12 L783,12 L783,20 L787,20 L787,27 L822,27 L822,30 L827,30 L827,12 L854,12 L854,27 L878,27 L878,18 L893,18 L893,16 L908,16 L908,18 L912,18 L912,12 L960,12 L960,18 L974,18 L974,13 L991,13 L991,18 L1006,18 L1006,27 L1037,27 L1037,30 L1067,30 L1067,21 L1078,21 L1078,15 L1090,15 L1090,21 L1113,21 L1113,33 L1135,33 L1135,43 L1128,43 L1128,48 L1131,48 L1131,56 L1128,56 L1128,92 L1135,92 L1135,152 L1115,152 L1115,159 L1133,159 L1133,177 L1127,177 L1127,180 L1135,180 L1135,184 L1115,184 L1115,194 L1099,194 L1099,209 L1095,209 L1095,215 L1125,215 L1125,241 L1095,241 L1095,233 L1064,233 L1064,226 L1051,226 L1051,239 L1061,239 L1061,253 L1057,253 L1057,258 L1061,258 L1061,263 L1021,263 L1021,239 L1020,239 L1020,237 L1007,237 L1007,251 L1013,251 L1013,266 L999,266 L999,272 L1003,272 L1003,278 L1009,278 L1009,300 L1007,300 L1007,303 L1002,303 L1002,306 L997,306 L997,295 L966,295 L966,300 L936,300 L936,308 L921,308 L921,313 L904,313 L904,308 L889,308 L889,314 L842,314 L842,308 L816,308 L816,295 L811,295 L811,298 L793,298 L793,307 L783,307 L783,313 L756,313 L756,307 L755,307 L755,293 L752,293 L752,300 L735,300 L735,302 L716,302 L716,304 L712,304 L712,312 L705,312 L705,300 L676,300 L676,302 L663,302 L663,300 L638,300 L638,295 L615,295 L615,309 L595,309 L595,314 L580,314 L580,312 L564,312 L564,309 L550,309 L550,314 L515,314 L515,309 L504,309 L504,312 L489,312 L489,314 L472,314 L472,309 L451,309 L451,296 L426,296 L426,300 L405,300 L405,302 L389,302 L389,300 L363,300 L363,314 L355,314 L355,305 L350,305 L350,300 L313,300 L313,293 L310,293 L310,314 L283,314 L283,300 L258,300 L258,308 L225,308 L225,312 L177,312 L177,308 L163,308 L163,313 L156,313 L156,308 L138,308 L138,302 L147,302 L147,292 L131,292 L131,298 L125,298 L125,285 L111,285 L111,255 L71,255 L71,285 L66,285 L66,262 L53,262 L53,271 L39,271 L39,287 L28,287 L28,295 L25,295 L25,280 L3,280 L3,268 L10,268 L10,264 L8,264 L8,256 L16,256 L16,248 L28,248 L28,246 L35,246 L35,236 L51,236 L51,210 L30,210 L30,187 L21,187 L21,207 L8,207 L8,213 L3,213 L3,154 L23,154 L23,108 L14,108 L14,88 L23,88 L23,72 L25,72 L25,45 L3,45 L3,28 L35,28 L35,19 L41,19 L41,13 L51,13 L51,23 L67,23 L67,34 L95,34 L95,19 L119,19 L119,15 L129,15 L129,19 L140,19 L140,30 L172,30 L172,28 L201,28 L201,19 L217,19 L217,12 L233,12 Z M1041,303 L1041,306 L1038,306 L1038,303 L1041,303 Z M1088,266 L1088,272 L1118,272 L1118,278 L1125,278 L1125,282 L1133,282 L1133,288 L1125,288 L1125,285 L1110,285 L1110,283 L1099,283 L1099,287 L1082,287 L1082,290 L1084,290 L1084,303 L1070,303 L1070,292 L1064,292 L1064,270 L1073,270 L1073,266 L1088,266 Z M1022,290 L1022,300 L1019,300 L1019,290 L1022,290 Z M95,292 L95,295 L84,295 L84,292 L95,292 Z M1088,244 L1088,263 L1084,263 L1084,244 L1088,244 Z M1128,245 L1128,258 L1122,258 L1122,251 L1127,251 L1127,245 L1128,245 Z M1084,237 L1084,241 L1075,241 L1075,237 L1084,237 Z M25,217 L25,221 L3,221 L3,217 L25,217 Z M19,124 L19,135 L12,135 L12,124 L19,124 Z" id="Combined-Shape" fill="#D8D8D8"></path>
    </g>
</svg>