<?xml version="1.0" encoding="UTF-8"?>
<svg width="203px" height="512px" viewBox="0 0 203 512" version="1.1" xmlns="http://www.w3.org/2000/svg" xmlns:xlink="http://www.w3.org/1999/xlink">
    <title>Combined Shape</title>
    <defs>
        <path d="M202.714833,370.585966 L218.184247,374.47621 C218.717675,374.610356 220.718031,375.146942 220.718031,376.488405 C220.718031,377.159137 220.184603,377.829869 219.917889,378.098161 C219.517818,378.366454 217.784176,379.842064 217.384105,380.110356 C217.384105,382.217673 217.326971,387.8308 217.287497,393.526477 L217.281094,394.475934 C217.263489,397.164902 217.250748,399.829869 217.250748,402.110356 L217.250748,402.110356 L232.262608,402.110356 L237.99696,394.464015 C239.145735,392.923248 239.561483,392.857216 239.945814,392.854386 L239.945814,392.854386 L245.915496,392.854758 C246.216508,392.861195 240.798349,392.950719 242.531099,394.195722 L242.531099,394.195722 L252.532875,401.842064 C253.066303,402.244503 253.866445,403.049381 253.866445,403.854259 C253.866445,405.195722 252.666232,405.329869 251.86609,405.329869 L217.250748,405.329869 C217.064669,417.403039 217.008412,422.22839 216.538533,427.049185 L216.490147,427.531518 C216.290924,429.462933 216.022623,431.432251 215.650464,433.903039 L215.650464,433.903039 L242.397741,433.903039 L249.19895,425.183527 C250.265806,423.842064 250.53252,423.573771 251.332662,423.573771 C251.732733,423.573771 252.266161,423.707917 253.733088,424.915234 L253.733088,424.915234 L263.868222,433.634747 C264.535007,434.171332 265.201792,434.707917 265.201792,435.646942 C265.201792,436.854259 264.134936,437.122552 263.201437,437.122552 L263.201437,437.122552 L216.450606,437.122552 C223.651885,460.195722 246.322579,475.354259 274.06084,479.646942 L274.06084,479.646942 L274.06084,480.317673 C270.593557,481.390844 269.354115,479.473589 265.886833,488.058955 C240.949069,477.327247 218.184247,462.610356 214.716965,440.342064 C208.582542,473.878649 176.976927,488.634747 151.77245,491.585966 L151.77245,491.585966 L151.77245,490.915234 C167.241865,484.47621 182.177851,475.488405 192.846413,462.744503 C201.381262,452.549381 203.114904,443.42743 204.18176,437.122552 L204.18176,437.122552 L152.484058,437.122632 C146.21965,437.126752 143.142757,437.289016 140.537586,437.609425 L140.129768,437.66133 L140.129768,437.66133 L139.727414,437.715863 C139.660678,437.725171 139.594071,437.734589 139.527543,437.744116 L139.128932,437.802592 C138.996114,437.822522 138.863217,437.84289 138.729846,437.863697 L138.327909,437.92743 L136.06084,433.098161 C137.527767,433.219113 139.03806,433.322616 140.536978,433.41103 L141.353112,433.457773 C147.8679,433.819977 153.976591,433.903039 155.130894,433.903039 L204.581831,433.903039 C206.048758,423.439625 206.448829,412.707917 206.315472,405.329869 L206.315472,405.329869 L187.436259,405.329869 C186.110266,407.692673 185.160975,409.384227 184.245031,410.904977 L184.025669,411.266934 C183.916132,411.446529 183.80668,411.624241 183.696719,411.800934 L183.475944,412.15322 C181.405759,415.433332 179.020502,418.559514 172.461044,427.156516 L172.461044,427.156516 L172.060973,426.217491 C178.605879,413.538142 183.568905,391.781088 182.768763,376.890844 L182.768763,376.890844 L196.637894,382.92743 C197.571393,383.329869 199.171677,384.268893 199.171677,385.610356 C199.171677,386.549381 198.638249,386.95182 198.238178,387.220113 C197.838107,387.488405 195.971109,388.293283 195.571037,388.561576 C193.303968,393.793283 191.703684,397.415234 189.1699,402.110356 L189.1699,402.110356 L206.315472,402.110356 C205.51533,381.854259 204.18176,375.683527 202.714833,370.585966 L202.714833,370.585966 Z M308.440314,333.249417 C320.068106,333.249417 328.802597,341.060419 328.802597,352.501886 C328.802597,361.963099 322.633862,371.204283 304.673565,372.249417 L304.673565,372.249417 L304.455202,371.039262 C317.939073,368.398924 324.053217,361.303014 324.053217,351.401745 C324.053217,341.555482 317.065624,335.229671 308.05818,335.229671 C307.403093,335.229671 306.748006,335.284678 306.038329,335.339685 C307.457684,337.099911 308.767858,339.245186 308.767858,341.500475 C308.767858,344.195821 308.167361,347.441237 307.020959,350.631646 C304.728155,357.342506 298.45024,367.848853 292.554458,367.848853 C288.678527,367.848853 284.802597,361.74307 284.802597,354.812182 C284.802597,349.421491 287.422944,343.425722 292.336096,339.135172 C296.757932,335.174664 302.380761,333.249417 308.440314,333.249417 Z M228.792385,249.869678 L243.680899,254.241013 C244.339683,254.505943 246.711304,255.433196 246.711304,257.155237 C246.711304,258.479884 245.920764,259.142207 242.758602,260.466855 L242.758602,260.466855 L242.758602,290.006485 L256.724818,290.006485 L260.941034,285.767615 C262.126845,284.575432 263.180899,284.442967 263.444412,284.442967 C264.36671,284.442967 265.420764,285.105291 266.079547,285.63515 L266.079547,285.63515 L271.218061,290.006485 C272.008602,290.668809 273.062656,291.728527 273.062656,292.920709 C273.062656,294.245356 272.535629,294.510286 269.109953,296.762186 L269.109953,296.762186 L269.110268,329.965563 C269.122806,334.580238 269.505223,352.327875 269.505223,356.106377 L269.505097,356.450306 C269.504907,356.623328 269.504433,356.797896 269.503247,356.973822 L269.4998,357.327432 C269.499025,357.38665 269.49814,357.446006 269.497128,357.505492 L269.489412,357.863919 C269.347115,363.262121 267.924142,369.604531 253.694412,371.869678 C252.376845,364.716583 246.711304,359.682924 242.758602,357.03363 L242.758602,357.03363 L242.890358,356.238842 C243.680899,356.238842 254.221439,356.901165 254.484953,356.901165 C257.910629,356.901165 258.569412,356.7687 258.569412,350.940253 C258.569412,348.733391 258.442873,338.766163 258.437812,336.373561 L258.437812,336.373561 L258.437656,336.23667 L218.647115,336.23667 C218.647115,338.182381 218.730397,343.05862 218.820505,348.123823 L218.839891,349.211116 C218.940301,354.83342 219.042385,360.447311 219.042385,362.332218 L219.042058,362.642029 C219.032829,365.656136 218.762985,371.339819 210.873466,371.339819 C207.579547,371.339819 206.789007,369.352848 206.789007,365.908766 C206.789007,352.2649 207.974818,330.540687 207.974818,317.029287 L207.974818,317.029287 L207.97426,315.034896 C207.965623,304.635017 207.823098,292.832399 205.471439,283.250785 L205.471439,283.250785 L219.701169,290.006485 L231.559277,290.006485 L231.559277,290.006485 L231.558931,286.338538 C231.558862,286.10487 231.558779,285.873321 231.55868,285.643861 L231.557861,284.291894 C231.541569,263.938066 231.337926,260.715888 228.792385,249.869678 L228.792385,249.869678 Z M200.201169,277.157408 C195.589683,293.980427 190.582926,310.670981 185.444412,327.361534 C183.336304,334.249699 182.67752,336.501599 182.67752,339.283358 C182.67752,341.535258 185.312656,351.205182 185.707926,353.192153 C186.36671,356.106377 186.893737,359.153065 186.893737,362.464683 C186.893737,364.584118 186.498466,370.015172 180.042385,370.015172 L180.042385,370.015172 L179.806764,370.01362 C176.192332,369.964321 172.53225,368.662341 172.53225,355.179124 L172.53225,355.179124 L172.532012,354.289925 C172.523055,340.20234 172.206185,339.930964 162.78225,332.792587 L162.78225,332.792587 L162.78225,331.997799 C170.555899,330.540687 171.74171,329.745899 180.305899,314.379992 C181.933928,311.499266 186.008117,303.667572 190.04679,295.842945 L190.609846,294.751681 C194.546125,287.120141 198.338401,279.715348 199.674142,277.157408 L199.674142,277.157408 Z M303.909297,335.724735 C300.197138,336.549841 296.53957,338.475087 293.810041,341.280447 C290.425426,344.745891 288.405575,348.981434 288.405575,353.712041 C288.405575,358.717683 290.643788,362.733197 292.882001,362.733197 C296.321207,362.733197 301.288949,354.372125 303.417982,349.586512 C304.564384,346.781152 305.492423,343.315708 305.492423,340.675369 C305.492423,338.750123 304.837336,337.209925 303.909297,335.724735 Z M256.240905,248.859936 C276.12537,248.337345 290.209414,253.250527 298.258298,258.967926 C301.867554,260.368753 310.894002,264.346495 310.894002,267.785983 C310.894002,268.920322 310.68625,269.229687 307.881599,271.601487 C307.531498,271.92231 307.244236,272.194613 306.974559,272.46512 L306.746657,272.697632 C306.06954,273.400388 305.423201,274.179529 304.038188,275.829477 C305.260258,275.926533 308.736688,275.795222 312.324078,275.543011 L313.221996,275.477502 C316.962619,275.194571 320.629828,274.790172 321.800978,274.385773 C322.943614,273.973286 327.306405,270.879635 328.345164,270.879635 L328.345164,270.879635 L328.441749,270.881724 C329.143261,270.91374 329.737134,271.343084 332.9583,274.156394 L333.654683,274.765721 C333.817962,274.908795 333.987055,275.057075 334.162219,275.210747 C337.174622,277.891911 337.694002,278.510641 337.694002,279.541859 C337.694002,280.985563 337.070746,281.191806 335.097102,281.810536 C332.084699,282.738632 330.838188,284.285457 328.656792,288.307204 C316.0878,311.303347 305.076947,321.821762 292.092451,329.762134 C288.145164,332.133933 279.315707,337.186897 271.109506,338.733723 L271.109506,338.733723 L270.694002,338.011871 C293.442839,324.193561 312.452141,303.878583 323.151366,279.335615 C320.762219,279.64498 312.452141,280.779319 307.985475,281.501171 C307.466095,281.604293 305.804079,282.223023 305.076947,282.223023 C304.038188,282.223023 302.272296,281.604293 300.298653,280.469954 C290.949816,291.710221 286.483149,295.525724 272.563769,303.67234 L272.563769,303.67234 L271.836637,302.950488 C281.579487,292.49608 286.431149,286.897343 290.378172,281.215733 L290.770006,280.647113 C290.834859,280.552236 290.899497,280.457291 290.963939,280.362253 L291.348388,279.790747 C291.539585,279.504261 291.72935,279.216539 291.918183,278.926964 L292.294753,278.345159 C293.359013,276.688675 294.40399,274.959461 295.520358,273.045191 C295.935862,272.332713 296.306725,271.671371 296.635445,271.058684 C296.208192,270.641368 295.736731,270.17621 295.213068,269.659936 C294.485532,268.955117 293.778139,268.270678 293.053354,267.595815 L292.689338,267.259132 C288.482495,263.3953 283.493814,259.788551 270.5878,254.384936 C266.887586,252.790269 263.976751,251.683709 261.125557,250.639272 L260.057731,250.249688 C258.811868,249.796629 257.559963,249.345269 256.240905,248.859936 Z M258.437656,315.837104 L218.647115,315.837104 L218.647115,333.057517 L258.437656,333.057517 L258.437656,315.837104 Z M258.437656,293.185638 L218.647115,293.185638 L218.647115,312.657951 L258.437656,312.657951 L258.437656,293.185638 Z M160.015358,282.323532 C178.724818,282.191067 183.468061,289.211697 183.468061,295.702468 C183.468061,299.808874 179.778872,301.795845 177.275493,301.795845 C173.981575,301.795845 172.795764,300.073804 169.370088,294.775215 C167.65725,292.125921 164.363331,287.622121 159.620088,282.985856 L159.620088,282.985856 Z M262.522115,254.241013 L274.51198,262.453825 C275.829547,263.381078 276.620088,263.910937 276.620088,265.235584 C276.620088,267.35502 274.775493,267.752414 272.535629,268.149808 C263.484818,276.457995 259.061726,280.408999 254.659202,283.642176 L254.187371,283.986007 C252.849553,284.953351 251.498466,285.866522 250.005223,286.827332 L250.005223,286.827332 L249.346439,286.297473 C254.880223,276.892479 261.599818,264.175867 262.522115,254.241013 L262.522115,254.241013 Z M198.883602,259.009743 C210.214683,260.33439 221.941034,267.35502 221.941034,276.495085 C221.941034,280.204097 219.964683,283.515715 215.880223,283.515715 C211.13698,283.515715 209.292385,279.541773 208.106575,276.892479 C202.703115,265.251422 201.545231,263.075051 199.920856,261.12158 L199.793254,260.96965 L199.793254,260.96965 L199.663269,260.817652 C199.422475,260.53833 199.167165,260.253759 198.883602,259.936996 L198.883602,259.936996 Z M170.160629,253.843619 C181.623466,253.446225 194.403872,258.214954 194.403872,267.487484 C194.403872,270.799102 191.900493,273.978255 187.816034,273.978255 C184.258602,273.978255 183.204547,272.123749 180.569412,267.619949 C176.089683,260.06946 171.873466,256.492913 170.160629,254.903337 L170.160629,254.903337 Z M269.02489,222.426867 C271.18861,222.432422 280.841839,222.554633 289.324417,225.243269 C291.89401,226.001603 300.245187,228.601603 300.245187,236.184936 C300.245187,236.834936 299.923988,240.409936 297.033196,240.409936 C295.748399,240.409936 295.641333,240.301603 291.037479,236.943269 C287.183089,234.126603 278.189513,228.276603 261.808357,222.859936 C264.270883,222.534936 265.769813,222.426603 268.767671,222.426603 L268.767671,222.426603 Z M269.945402,196.643269 C279.795509,196.643269 303.671312,200.868269 303.671312,211.918269 C303.671312,213.434936 302.386515,216.034936 299.816922,216.034936 C298.425059,216.034936 297.568528,215.384936 294.677736,213.218269 C293.178806,212.134936 288.467886,208.776603 280.330841,204.984936 C270.694866,200.434936 263.521419,198.484936 259.131697,197.184936 C259.437601,197.164301 259.742534,197.142684 260.04779,197.120458 L260.965826,197.05233 C263.577016,196.856251 266.305145,196.643269 269.945402,196.643269 Z M292.583944,156.467386 L301.619032,161.910617 L328.548857,161.910617 L330.917278,159.101207 C331.619032,158.223267 332.057629,157.872091 332.671664,157.872091 C333.373418,157.872091 334.250611,158.486649 334.864646,159.013413 L334.864646,159.013413 L337.847102,161.296059 C338.373418,161.735029 339.075172,162.349587 339.075172,162.964146 C339.075172,163.92988 337.759383,164.632232 336.180436,165.422379 C336.180436,169.724287 337.145348,188.512213 337.145348,192.375151 C337.145348,196.67706 333.185804,196.847415 332.119255,196.852509 L332.057629,196.852648 C329.250611,196.852648 329.250611,196.062501 329.33833,192.375151 L329.33833,192.375151 L300.65412,192.375151 L300.65412,192.375151 L300.653851,192.563108 C300.647,194.234985 300.465441,197.730588 295.65412,197.730588 C292.590962,197.730588 292.499067,195.417636 292.496225,194.237205 L292.496225,194.131032 C292.496225,193.165298 292.847102,189.126772 292.847102,188.248831 C293.11026,183.332364 293.197979,171.655756 293.197979,166.212525 C293.197979,161.771846 293.054854,159.838001 292.703965,157.305751 L292.625571,156.752835 L292.625571,156.752835 L292.583944,156.467386 Z M329.33833,177.976928 L300.65412,177.976928 L300.65412,190.268094 L329.33833,190.268094 L329.33833,177.976928 Z M329.33833,164.017674 L300.65412,164.017674 L300.65412,175.86987 L329.33833,175.86987 L329.33833,164.017674 Z M324.42605,130.919318 L333.11026,135.396815 C333.812015,135.747991 334.42605,136.362549 334.42605,137.064902 C334.42605,138.030636 333.197979,138.381812 331.794471,138.908577 C328.285699,144.17622 324.864646,148.039158 322.759383,150.146215 L322.759383,150.146215 L341.706751,150.146215 L345.65412,145.9321 C346.268155,145.317542 346.706751,144.790778 347.057629,144.790778 C347.320786,144.790778 347.671664,145.05416 348.636576,145.756512 L348.636576,145.756512 L354.601488,149.970627 C355.040085,150.321803 355.478681,150.672979 355.478681,151.375331 C355.478681,152.165478 354.776927,152.253272 354.162892,152.253272 L354.162892,152.253272 L286.007357,152.253854 C281.009359,152.267392 279.178656,152.515686 277.101099,152.846866 L277.101099,152.846866 L276.969909,152.86783 L275.478681,149.61945 C279.601488,150.058421 283.812015,150.146215 288.022541,150.146215 L288.022541,150.146215 L319.952365,150.146215 C324.075172,140.576664 324.33833,133.728728 324.42605,130.919318 L324.42605,130.919318 Z M297.145348,132.938581 C307.145348,137.591666 307.671664,144.000631 307.671664,144.966366 C307.671664,147.863569 305.65412,149.61945 303.197979,149.61945 C300.040085,149.61945 299.075172,147.161217 298.987453,143.912837 C298.812015,138.469606 298.724295,136.889314 296.355874,133.55314 L296.355874,133.55314 Z M368.402365,24.746276 C369.029759,24.746276 369.657152,25.3685548 370.284545,25.8663779 L370.284545,25.8663779 L376.809434,30.9690645 C377.562306,31.5913434 378.315178,32.0891665 378.315178,33.0848126 C378.315178,34.4538261 375.805605,35.9472953 374.174383,36.8184857 C374.42534,40.3032473 374.550819,44.9081108 374.550819,52.0020898 L374.550329,52.7137906 C374.544126,57.235613 374.478945,62.0269127 374.353064,66.8699601 L374.311293,68.4008097 C374.274799,69.6775279 374.234089,70.9562425 374.189131,72.2329857 L374.133141,73.7638772 C373.446419,91.862219 371.90071,109.24299 369.406194,114.544806 C364.010613,126.119193 353.721364,126.741472 348.57674,126.865928 C347.949347,119.14967 343.306637,114.918174 338.287492,110.562222 L338.287492,110.562222 L338.287492,109.939943 C345.063338,112.67797 351.713706,113.424704 353.721364,113.424704 C357.736681,113.424704 359.367903,110.686677 361.124604,104.214977 C362.002955,101.103583 364.26157,83.9872228 364.26157,64.3232111 C364.26157,54.5000949 363.93699,44.5696673 363.589226,34.6315747 L363.589226,34.6315747 L363.508698,32.338078 L343.931549,32.338078 C343.931549,45.6548455 343.680592,59.7183476 342.049369,72.6617477 C340.768948,82.4308545 335.545591,100.481641 318.550792,112.909892 L318.548857,128.724467 L333.373418,128.724467 L336.706751,124.773735 C337.536952,123.776646 337.581427,123.72323 337.955626,123.720369 L337.955626,123.720369 L338.041861,123.720301 C338.380247,123.723699 338.569974,123.822633 339.689207,124.598147 L339.689207,124.598147 L345.303243,128.548879 C345.829558,128.900055 346.268155,129.251232 346.268155,129.953584 C346.268155,130.74373 345.5664,130.831524 344.952365,130.831524 L344.952365,130.831524 L293.987453,130.831524 C288.636576,130.831524 286.706751,131.094907 284.513769,131.446083 L284.513769,131.446083 L283.11026,128.197703 C287.233067,128.636673 291.355874,128.724467 295.5664,128.724467 L295.5664,128.724467 L311.004997,128.724467 L311.005489,117.601474 C308.182024,119.08257 305.110774,120.418809 301.770726,121.572866 L301.770726,121.572866 L301.770726,120.577219 C331.132728,98.548548 332.889429,78.2622574 333.265865,32.338078 L333.265865,32.338078 L310.527154,32.338078 C306.067694,32.4680401 303.78299,32.9027435 302.134755,33.2092684 L302.134755,33.2092684 L300.127096,28.6044049 C301.746987,28.7650734 308.543085,28.9139246 315.768769,29.0376667 L316.828702,29.0555945 C325.1469,29.1946007 333.725346,29.2997589 335.4137,29.3510462 L335.4137,29.3510462 L362.755827,29.3511395 L366.394707,26.1152895 C367.0221,25.6174664 367.774972,24.746276 368.402365,24.746276 Z M282.089595,13.8659276 L297.021553,17.2262334 C298.150861,17.4751449 298.903733,18.3463353 298.903733,19.2175257 C298.903733,20.2131719 297.899904,20.9599065 295.013895,23.5734777 C294.978604,23.9935159 294.948276,24.3766367 294.921864,24.7529509 L294.904824,25.003149 C294.759231,27.2101628 294.741371,29.4131758 294.637459,37.7614356 L294.637459,37.7614356 L301.538784,37.7614356 L305.554101,34.5255855 C306.181494,34.0277625 306.808887,33.5299394 307.43628,33.5299394 C308.063673,33.5299394 308.942024,34.1522182 309.443938,34.6500413 L309.443938,34.6500413 L316.847178,40.8728298 C317.474572,41.3706529 317.725529,42.2418433 317.725529,42.8641222 C317.725529,44.2331356 316.972657,44.7309587 312.580905,46.0999722 C307.43628,54.3140531 302.040699,57.6249021 294.888416,65.0922483 L294.888416,65.0922483 L294.888416,74.2624 C296.810311,75.0071694 296.649193,74.8241707 297.021553,74.8241707 C297.397989,73.8285246 310.388931,64.904881 311.141803,58.6820925 L311.141803,58.6820925 L317.934052,63.178714 C318.686923,63.6765371 319.565413,64.221058 319.565413,65.0922483 C319.565413,66.4612618 319.231272,66.8413853 316.847178,67.4636642 C311.828033,71.8196161 302.334514,74.7348371 300.075898,76.1038505 C303.965736,78.2195986 315.930763,82.5497377 315.930763,88.7725262 C315.930763,93.6263013 312.801762,95.633369 310.919582,95.633369 C307.657137,95.633369 304.173836,94.1499373 302.040699,88.4249718 C299.280169,81.0820814 296.39416,77.5973198 294.888416,76.1038505 C295.013895,80.0864352 295.139373,91.8996958 295.264852,95.633369 C295.264852,97.251294 295.390927,101.395183 295.530045,105.766745 L295.562329,106.778562 L295.562329,106.778562 L295.594768,107.792186 C295.746028,112.516882 295.892245,117.095552 295.892245,118.657687 C295.892245,122.266904 294.386502,125.502754 288.99092,125.502754 C284.852634,125.502754 284.728486,123.512047 284.724761,122.143142 L284.724761,122.143142 L284.724721,122.006589 C284.728181,121.719876 284.851892,119.993395 284.975603,117.66204 C285.853954,103.971906 285.648423,91.4641006 285.773901,69.6843408 C280.503798,74.1647485 271.106341,77.570172 260.817093,81.8016682 L260.817093,81.8016682 L260.315178,81.1793893 C262.378047,79.5067038 264.505116,77.7572016 266.656693,75.960932 L267.73434,75.059039 C283.20462,62.0800334 299.593865,46.9562279 302.291656,40.7483741 L302.291656,40.7483741 L280.480704,40.7486993 C273.070545,40.7589074 270.477592,41.0102498 267.283115,41.6195645 L267.283115,41.6195645 L265.275457,37.0147009 C266.05385,37.0779835 266.84522,37.1361177 267.640328,37.1894962 L268.436341,37.2413039 C274.941705,37.6516918 281.491076,37.7536281 283.052925,37.760992 L285.477518,37.7614356 C285.352039,29.6718105 285.101082,21.4577296 282.089595,13.8659276 L282.089595,13.8659276 Z" id="path-1"></path>
        <filter x="-6.8%" y="-3.5%" width="113.6%" height="106.9%" filterUnits="objectBoundingBox" id="filter-2">
            <feOffset dx="0" dy="0" in="SourceAlpha" result="shadowOffsetOuter1"></feOffset>
            <feGaussianBlur stdDeviation="5.5" in="shadowOffsetOuter1" result="shadowBlurOuter1"></feGaussianBlur>
            <feColorMatrix values="0 0 0 0 0   0 0 0 0 0   0 0 0 0 0  0 0 0 0.52496722 0" type="matrix" in="shadowBlurOuter1"></feColorMatrix>
        </filter>
    </defs>
    <g id="Page-1" stroke="none" stroke-width="1" fill="none" fill-rule="evenodd">
        <g id="shoshitsu" transform="translate(-161.000000, 0.000000)" fill-rule="nonzero">
            <g id="Combined-Shape" transform="translate(257.188009, 252.725947) rotate(-15.000000) translate(-257.188009, -252.725947) ">
                <use fill="#FFFFFF" xlink:href="#path-1"></use>
            </g>
        </g>
    </g>
</svg>