<?xml version="1.0" encoding="UTF-8"?>
<svg width="305px" height="140px" viewBox="0 0 305 140" version="1.1" xmlns="http://www.w3.org/2000/svg" xmlns:xlink="http://www.w3.org/1999/xlink">
    <title>初音天地開闢神話 copy</title>
    <defs>
        <filter x="-3.6%" y="-8.1%" width="107.1%" height="116.2%" filterUnits="objectBoundingBox" id="filter-1">
            <feOffset dx="0" dy="0" in="SourceAlpha" result="shadowOffsetOuter1"></feOffset>
            <feGaussianBlur stdDeviation="2.5" in="shadowOffsetOuter1" result="shadowBlurOuter1"></feGaussianBlur>
            <feColorMatrix values="0 0 0 0 0.057902974   0 0 0 0 0.38723578   0 0 0 0 0.228794183  0 0 0 1 0" type="matrix" in="shadowBlurOuter1" result="shadowMatrixOuter1"></feColorMatrix>
            <feMerge>
                <feMergeNode in="shadowMatrixOuter1"></feMergeNode>
                <feMergeNode in="SourceGraphic"></feMergeNode>
            </feMerge>
        </filter>
    </defs>
    <g id="Page-1" stroke="none" stroke-width="1" fill="none" fill-rule="evenodd">
        <g id="Artboard" transform="translate(-887.000000, -654.000000)" fill="#FFFFFF">
            <g id="初音天地開闢神話-copy" transform="translate(892.000000, 659.000000)" filter="url(#filter-1)">
                <path d="M35.4108825,50.9956058 L29.6778825,50.9956058 L29.6778825,62.3251058 L35.4108825,62.3251058 L35.4108825,50.9956058 Z M41.0756325,39.5978558 L35.4108825,39.5978558 L35.4108825,50.9956058 L41.0756325,50.9956058 L41.0756325,39.5978558 Z M41.0756325,11.1376058 L41.0756325,39.5978558 L46.7403825,39.5978558 L46.7403825,11.1376058 L41.0756325,11.1376058 Z M131.649244,61.9192169 L131.649244,33.4589669 L91.8594936,33.4589669 L91.8594936,61.9192169 L131.649244,61.9192169 Z M125.984494,44.8567169 L97.5242436,44.8567169 L97.5242436,39.1237169 L125.984494,39.1237169 L125.984494,44.8567169 Z M125.984494,56.1862169 L97.5242436,56.1862169 L97.5242436,50.5214669 L125.984494,50.5214669 L125.984494,56.1862169 Z M207.327021,56.1862169 L207.327021,61.9192169 L218.724771,61.9192169 L218.724771,56.1862169 L207.327021,56.1862169 Z M201.662271,50.5214669 L201.662271,56.1862169 L207.327021,56.1862169 L207.327021,50.5214669 L201.662271,50.5214669 Z M195.929271,44.8567169 L195.929271,50.5214669 L201.662271,50.5214669 L201.662271,44.8567169 L195.929271,44.8567169 Z M190.264521,39.1237169 L190.264521,44.8567169 L195.929271,44.8567169 L195.929271,39.1237169 L190.264521,39.1237169 Z M184.599771,39.1237169 L190.264521,39.1237169 L190.264521,27.7942169 L184.599771,27.7942169 L184.599771,39.1237169 Z M263.775633,4.99871689 L258.110883,4.99871689 L258.110883,61.9192169 L292.235883,61.9192169 L292.235883,50.5214669 L286.502883,50.5214669 L286.502883,56.1862169 L263.775633,56.1862169 L263.775633,4.99871689 Z M45.2959381,122.224772 L45.2959381,110.827022 L51.2770214,110.827022 L51.2770214,105.162272 L45.2959381,105.162272 L45.2959381,99.4292724 L51.2770214,99.4292724 L51.2770214,93.7645224 L22.6817159,93.7645224 L22.6817159,99.4292724 L28.2334381,99.4292724 L28.2334381,105.162272 L22.6817159,105.162272 L22.6817159,110.827022 L28.2334381,110.827022 L28.2334381,116.491772 L33.9664381,116.491772 L33.9664381,110.827022 L39.6311881,110.827022 L39.6311881,122.224772 L45.2959381,122.224772 Z M39.6311881,105.162272 L33.9664381,105.162272 L33.9664381,99.4292724 L39.6311881,99.4292724 L39.6311881,105.162272 Z M28.2334381,122.224772 L28.2334381,116.491772 L22.5686881,116.491772 L22.5686881,122.224772 L28.2334381,122.224772 Z M119.425369,117.427165 L119.425369,122.428223 L124.561686,122.428223 L124.561686,117.427165 L129.75802,117.427165 L129.75802,112.32664 L124.561686,112.32664 L124.561686,107.262467 L129.75802,107.262467 L129.75802,91.8914391 L124.561686,91.8914391 L124.561686,102.075905 L119.425369,102.075905 L119.425369,91.8914391 L114.369326,91.8914391 L114.369326,102.075905 L109.626045,102.075905 L109.626045,107.262467 L119.425369,107.262467 L119.425369,112.32664 L109.626045,112.32664 L109.626045,117.395378 L119.425369,117.427165 Z M173.563133,94.5997724 L179.227883,94.5997724 L179.227883,77.5372724 L173.563133,77.5372724 L173.563133,66.1395224 L167.898383,66.1395224 L167.898383,77.5372724 L156.500633,77.5372724 L156.500633,83.2020224 L173.563133,83.2020224 L173.563133,94.5997724 Z M162.165383,111.662272 L162.165383,105.929272 L156.500633,105.929272 L156.500633,111.662272 L162.165383,111.662272 Z M173.563133,94.5997724 L167.898383,94.5997724 L167.898383,100.264522 L162.165383,100.264522 L162.165383,105.929272 L167.898383,105.929272 L167.898383,129.861144 L173.563133,129.861144 L173.563133,111.662272 L179.227883,111.662272 L179.227883,105.929272 L173.563133,105.929272 L173.563133,94.5997724 Z M288.469302,75.4243649 L288.469302,70.5403836 L278.642496,70.5403836 L278.642496,75.4243649 L288.469302,75.4243649 Z M278.642496,104.845939 L278.642496,95.0779765 L294.247079,95.0779765 L294.247079,90.135152 L278.642496,90.135152 L278.642496,75.4243649 L259.047727,75.4243649 L259.047727,80.3671893 L273.758515,80.3671893 L273.758515,90.135152 L259.047727,90.135152 L259.047727,95.0779765 L273.758515,95.0779765 L273.758515,104.845939 L278.642496,104.845939 Z" id="初音天地開闢神話" fill-rule="nonzero"></path>
                <g id="Group">
                    <path d="M14.244107,0.50726092 L22.982012,2.56673447 L22.982012,3.42870702 L19.7631584,7.2973546 L19.7631584,14.3336108 L24.0312456,14.3336108 L26.0448065,11.1376058 L26.4877409,11.1376058 L32.1001383,15.9462985 L32.1001383,16.9140997 L27.2184224,19.8356616 C24.6615238,24.5218627 22.6051706,27.5870965 21.049363,29.0313629 L21.049363,31.9641894 C28.0088822,35.6230351 31.5905579,38.1675906 31.7943901,39.5978558 L29.6778825,43.3224194 L28.9196152,43.3224194 C25.4788259,37.4606075 22.8554085,34.2961582 21.049363,33.8290715 L21.049363,62.3251058 L21.9267093,63.4763984 L21.049363,64.3463916 L14.6728974,64.3463916 L14.244107,63.8601356 L16.3062457,60.293449 L16.3062457,34.1691357 C8.55866136,40.1819716 3.40639679,43.6045897 0.849451986,44.4369902 C-9.99200722e-16,44.4412514 -0.212362997,44.0697278 0.212362997,43.3224194 C11.4831986,36.5516706 19.4228261,28.0663693 24.0312456,17.8665153 L23.4378718,16.9140997 L9.6741355,16.9140997 L6.36862864,18.7012599 L5.64745964,18.7012599 L3.99086235,14.3336108 C3.91507776,13.1427767 4.11089329,12.5473597 4.57830894,12.5473597 C5.04572459,12.5473597 6.28659925,13.1427767 8.30093293,14.3336108 L14.9940853,14.3336108 L14.9940853,2.56673447 L14.244107,1.67928177 L14.244107,0.50726092 Z" id="Path-18"></path>
                    <path d="M30.1162841,23.9142878 L36.5794976,27.5801308 L32.1001383,29.8770493 C28.8142208,33.7201954 26.5341038,35.6417684 25.2597872,35.6417684 C23.9854707,35.6417684 23.7575717,35.1035919 24.5760904,34.027239 C27.6850174,29.2231955 29.3856148,26.3366927 29.6778825,25.3677308 C29.9701502,24.3987688 30.1162841,23.9142878 30.1162841,23.9142878 Z" id="Path-19"></path>
                    <path d="M35.4108825,12.3437415 L32.5443825,13.8702339 C32.336361,14.0980258 31.9856944,14.0980258 31.4923826,13.8702339 L29.3921109,8.20728079 C29.4978692,7.57028754 29.8130651,7.25179092 30.3376988,7.25179092 L33.5427467,9.60722565 L58.3489792,9.60722565 L61.6372014,6.71153849 L67.3276081,11.9696368 L64.3969071,16.3554289 C62.6730262,35.9332901 63.4499152,49.6065851 60.5538242,58.3778651 C59.414522,61.8284261 55.5183183,63.644557 52.820356,64.3463916 L50.5633156,60.2440888 L44.3542801,57.8414109 C43.6334231,57.2070529 43.6334231,56.5585709 44.3542801,55.8959649 L53.8158532,55.5688295 C60.2716798,54.3708529 59.5558871,39.5978558 60.2716798,16.7286009 L58.0393347,12.3437415 L35.4108825,12.3437415 Z" id="Path-20"></path>
                    <path d="M108.784256,9.77924993 L88.8563553,9.77924993 L86.1266232,7.59561935 C84.8387916,7.02032344 84.1948758,7.24043789 84.1948758,8.2559627 L86.5919707,14.0528409 C86.9875507,14.5334126 87.4638431,14.6535556 88.020848,14.4132697 L90.6601205,12.988478 L140.968529,12.988478 C141.734574,12.951782 141.926085,12.5959418 141.543063,11.9209574 C141.16004,11.245973 139.004221,9.50586077 135.075605,6.70062073 L131.288133,9.77924993 L113.757801,9.77924993 L113.757801,7.59561935 L116.863104,3.20365664 C117.386683,2.78463553 117.386683,2.41681619 116.863104,2.10019863 L108.274411,0 C108.02647,1.05328203 108.196418,1.75334824 108.784256,2.10019863 L108.784256,9.77924993 Z" id="Path-21"></path>
                    <path d="M85.2865209,28.7925989 L145.650483,28.7925989 C145.93088,28.3470621 145.93088,27.9357725 145.650483,27.5587302 C145.370085,27.1816878 143.277423,25.4759849 139.372496,22.4416214 L135.907041,25.6171101 L83.3927717,25.6171101 L80.649652,23.628822 C79.5813635,23.4126522 79.0472192,23.6103281 79.0472192,24.2218496 C79.0472192,24.833371 79.7497414,26.7750439 81.1547858,30.0468681 C81.688296,30.5160716 82.1946712,30.5160716 82.6739114,30.0468681 L85.2865209,28.7925989 Z" id="Path-22"></path>
                    <path d="M160.974656,10.9885834 L217.727507,10.9885834 C218.007905,10.5430465 218.007905,10.1317569 217.727507,9.75471458 C217.44711,9.37767223 215.354447,7.6719693 211.44952,4.63760578 L207.984066,7.81309457 L159.080907,7.81309457 L156.337788,5.82480644 C155.269499,5.60863665 154.735355,5.8063125 154.735355,6.41783398 C154.735355,7.02935546 155.437877,8.97102832 156.842921,12.2428525 C157.376432,12.712056 157.882807,12.712056 158.362047,12.2428525 L160.974656,10.9885834 Z" id="Path-22"></path>
                    <path d="M235.724656,24.8591526 L255.283063,24.8591526 C255.56346,24.4547658 255.56346,24.0814632 255.283063,23.7392447 C255.002665,23.3970262 252.983479,21.7601821 249.225505,18.8287125 L245.539621,21.9769538 L233.830907,21.9769538 L230.976387,19.7146542 C229.982366,19.8235506 229.485355,20.1555194 229.485355,20.7105604 C229.485355,21.2656014 230.187877,23.0279401 231.592921,25.9975767 C232.126432,26.4234442 232.632807,26.4234442 233.112047,25.9975767 L235.724656,24.8591526 Z" id="Path-22"></path>
                    <path d="M238.813216,73.4652051 L255.098965,73.4652051 C255.355878,73.2850058 255.355878,73.0381277 255.098965,72.7245705 C254.842051,72.4110133 253.462212,71.0866786 250.95945,68.7515663 L249.247587,70.4799909 L236.717006,70.4799909 L234.462622,68.7515663 C233.721475,68.7678011 233.350902,69.0301962 233.350902,69.5387517 C233.350902,70.0473071 233.909775,71.703818 235.027521,74.5082844 C235.516348,74.8984849 235.980314,74.8984849 236.419417,74.5082844 L238.813216,73.4652051 Z" id="Path-22-Copy-2"></path>
                    <path d="M235.563216,82.1318717 L258.348965,82.1318717 C258.605878,81.9516725 258.605878,81.7047943 258.348965,81.3912372 C258.092051,81.07768 256.712212,79.7533453 254.20945,77.418233 L252.497587,79.1466575 L233.467006,79.1466575 L231.212622,77.418233 C230.471475,77.4344678 230.100902,77.6968629 230.100902,78.2054183 C230.100902,78.7139738 230.659775,80.3704847 231.777521,83.1749511 C232.266348,83.5651515 232.730314,83.5651515 233.169417,83.1749511 L235.563216,82.1318717 Z" id="Path-22-Copy-3"></path>
                    <path d="M236.64655,91.1596495 L256.182298,91.1596495 C256.439212,90.9794503 256.439212,90.7325721 256.182298,90.4190149 C255.925384,90.1054578 254.545546,88.781123 252.042783,86.4460107 L250.33092,88.1744353 L234.550339,88.1744353 L232.295955,86.4460107 C231.554808,86.4622455 231.184235,86.7246407 231.184235,87.2331961 C231.184235,87.7417516 231.743108,89.3982625 232.860854,92.2027288 C233.349682,92.5929293 233.813647,92.5929293 234.25275,92.2027288 L236.64655,91.1596495 Z" id="Path-22-Copy-4"></path>
                    <path d="M237.729883,99.4652051 L256.543409,99.4652051 C256.800323,99.2850058 256.800323,99.0381277 256.543409,98.7245705 C256.286495,98.4110133 254.906657,97.0866786 252.403894,94.7515663 L250.692031,96.4799909 L235.633672,96.4799909 L233.379289,94.7515663 C232.638142,94.7678011 232.267568,95.0301962 232.267568,95.5387517 C232.267568,96.0473071 232.826441,97.703818 233.944187,100.508284 C234.433015,100.898485 234.896981,100.898485 235.336084,100.508284 L237.729883,99.4652051 Z" id="Path-22-Copy-5"></path>
                    <path d="M165.669101,27.9608056 L212.671952,27.9608056 C212.952349,27.5152688 212.952349,27.1039792 212.671952,26.7269368 C212.391554,26.3498945 210.298892,24.6441915 206.393965,21.609828 L202.92851,24.7853168 L163.775352,24.7853168 L161.032232,22.7970287 C159.963943,22.5808589 159.429799,22.7785347 159.429799,23.3900562 C159.429799,24.0015777 160.132321,25.9432505 161.537366,29.2150748 C162.070876,29.6842782 162.577251,29.6842782 163.056491,29.2150748 L165.669101,27.9608056 Z" id="Path-22-Copy"></path>
                    <path d="M98.8309097,13.3002033 C102.34417,16.7484237 105.421738,20.7969544 106.008957,22.4416214 L103.355942,26.420196 L100.016043,26.420196 L100.38347,22.4416214 L97.1631325,14.5334126 C97.1631325,13.1006111 97.7190582,12.6895413 98.8309097,13.3002033 Z" id="Path-23"></path>
                    <path d="M121.914336,13.026471 L116.11726,26.420196 L119.015798,26.420196 L121.914336,21.923762 L129.222966,16.3333437 C129.806486,15.9937627 129.806486,15.6088789 129.222966,15.1786924 L121.914336,13.026471 Z" id="Path-24"></path>
                    <path d="M183.115574,10.3810223 L183.115574,27.0719947 L182.273013,28.2060213 C177.374934,42.4420275 168.483334,53.4390186 155.598212,61.1969947 C154.548952,61.8287413 155.598212,62.959582 156.139521,62.7570394 C156.680831,62.5544967 181.788527,51.2738267 186.156025,28.8949934 L188.738381,26.420196 L188.738381,10.3810223" id="Path-25"></path>
                    <path d="M240.788854,3.78089672 L240.788854,46.6855605 C237.22134,47.8834826 234.380434,48.3428585 232.266134,48.0636883 C231.005885,47.8972861 231.527719,50.0312291 233.831636,54.4655171 C234.146104,55.3603808 234.878966,55.5001356 236.030223,54.8847816 C236.16227,54.8142014 236.030223,54.4655171 236.572219,54.1666538 C239.988201,52.2830373 253.751856,44.8053942 254.889772,42.91453 C255.35043,42.1490596 255.050285,41.8682929 253.989337,42.0722302 C249.29562,44.5332695 246.400841,45.7637892 245.304999,45.7637892 L245.304999,8.61618045 L248.36889,4.86845868 C248.687916,4.42691438 248.687916,4.06439373 248.36889,3.78089672 C247.890352,3.35565122 244.287497,2.94864537 240.328085,1.87985414 C239.696303,1.7093129 239.491456,1.96576661 239.713543,2.64921528 L240.788854,3.78089672 Z" id="Path-26"></path>
                    <path d="M271.284297,4.27649467 L271.284297,48.1340936 C270.819297,48.8076628 270.819297,49.1444474 271.284297,49.1444474 C271.749297,49.1444474 273.020624,48.3240845 275.098278,46.6833588 C275.92088,46.315147 275.92088,46.000357 275.098278,45.7389887 L275.098278,8.03979864 L277.552627,4.81054295 C277.84879,4.47349858 277.84879,4.13988329 277.552627,3.80969707 C277.256464,3.47951086 275.16702,2.98406976 271.284297,2.32337378 C270.438729,2.64702539 270.438729,3.14246649 271.284297,3.80969707" id="Path-27"></path>
                    <path d="M196.336264,67.9731841 L196.336264,130 L201.13101,130 L201.13101,72.7042215 L204.216495,68.6445629 C204.588816,68.2208475 204.588816,67.8014431 204.216495,67.3863495 C203.844173,66.9712559 201.21743,66.3484122 196.336264,65.5178182 C195.273258,65.9246968 195.273258,66.5475406 196.336264,67.3863495" id="Path-27-Copy"></path>
                    <path d="M252.403107,28.5448245 C253.600878,28.5448245 264.318208,24.8695032 284.555097,17.5188606 L287.886181,14.4239084 L293.493458,19.6881267 L290.846989,23.3770581 C290.272826,34.974396 289.28589,41.632779 287.886181,43.352207 C286.486472,45.071635 284.979588,46.291618 283.36553,47.0121561 L280.731142,44.0233688 L276.828974,42.6783587 L276.828974,41.4533907 C278.636556,41.7549212 280.099738,41.9056864 281.218522,41.9056864 C287.306674,41.9056864 286.113548,30.7180323 286.446631,24.1404432 L284.555097,20.811241 L255.493361,31.2699001 L253.035393,33.2100262 C252.343217,33.5255473 251.702605,33.5255473 251.113557,33.2100262 L248.077766,28.5448245 C247.59867,27.8297043 247.984861,27.4721442 249.23634,27.4721442 C250.215131,28.1872644 251.27072,28.5448245 252.403107,28.5448245 Z" id="Path-28"></path>
                    <path d="M13.6936037,67.4586252 L13.6936037,69.7006069 L31.4446543,69.7006069 L31.4446543,88.5772107 L13.6936037,88.5772107 L13.6936037,126.010289 L9.22242736,126.010289 L9.22242736,67.4586252 L13.6936037,67.4586252 Z M26.5339985,80.4287821 L13.7204039,80.4287821 L13.7204039,85.4843377 L26.5339985,85.4843377 L26.5339985,80.4287821 Z M26.5339985,72.8454488 L13.7204039,72.8454488 L13.7204039,77.2531712 L26.5339985,77.2531712 L26.5339985,72.8454488 Z" id="Combined-Shape"></path>
                    <path d="M62.2611036,66.5271527 L68.4043749,70.9791539 L65.8954689,74.1169324 L65.8954689,126.010289 C64.9792079,127.855303 63.5440028,128.777811 61.5898536,128.777811 L59.5393878,125.047954 L53.8037372,122.994453 C52.2846143,121.831596 52.2846143,120.960161 53.8037372,120.380146 L61.0259595,120.380146 L61.0259595,88.5655011 L41.6116646,88.5655011 L41.6116646,69.7036567 L58.6586297,69.7036567 L62.2611036,66.5271527 Z M61.0259595,80.4287821 L46.581515,80.4287821 L46.581515,85.4843377 L61.0259595,85.4843377 L61.0259595,80.4287821 Z M61.0259595,72.8454488 L46.581515,72.8454488 L46.581515,77.2531712 L61.0259595,77.2531712 L61.0259595,72.8454488 Z" id="Combined-Shape"></path>
                    <path d="M85.2559429,66.7278039 L89.1128102,69.7006069 L106.194654,69.7006069 L106.194654,88.5772107 L88.4436037,88.5772107 L88.4436037,126.010289 L83.9724274,126.010289 L83.9724274,67.0500575 C83.9724274,66.2186202 84.4002659,66.1112023 85.2559429,66.7278039 Z M101.283999,80.4287821 L88.4704039,80.4287821 L88.4704039,85.4843377 L101.283999,85.4843377 L101.283999,80.4287821 Z M101.283999,72.8454488 L88.4704039,72.8454488 L88.4704039,77.2531712 L101.283999,77.2531712 L101.283999,72.8454488 Z" id="Combined-Shape"></path>
                    <path d="M137.011104,66.5271527 L143.154375,70.9791539 L140.645469,74.1169324 L140.645469,126.010289 C139.729208,127.855303 138.294003,128.777811 136.339854,128.777811 L134.289388,125.047954 L128.553737,122.994453 C127.034614,121.831596 127.034614,120.960161 128.553737,120.380146 L135.775959,120.380146 L135.775959,88.5655011 L116.361665,88.5655011 L116.361665,69.7036567 L133.40863,69.7036567 L137.011104,66.5271527 Z M135.775959,80.4287821 L121.331515,80.4287821 L121.331515,85.4843377 L135.775959,85.4843377 L135.775959,80.4287821 Z M135.775959,72.8454488 L121.331515,72.8454488 L121.331515,77.2531712 L135.775959,77.2531712 L135.775959,72.8454488 Z" id="Combined-Shape"></path>
                    <path d="M96.0919134,91.2906093 C97.0867086,92.2740105 98.1334703,92.9291436 99.2321987,93.2560086 L105.210995,93.2560086 L107.437801,90.9876181 L110.740124,94.2268912 L108.879091,95.8059197 L108.879091,102.208173 L109.192682,103.46889 L107.437801,104.607563 L106.551995,104.021245 L98.4570756,104.021245 C96.3556711,112.015946 95.335751,117.193275 92.268023,118.865443 C90.7665817,119.683854 90.8625464,118.865443 91.3203329,118.045124 C93.7600002,113.673422 95.4995517,105.285966 95.2050242,93.2560086 C95.1916042,92.707867 95.0823298,92.2122881 94.8772012,91.7692719 C94.9389154,90.710638 95.3438195,90.5510838 96.0919134,91.2906093 Z M105.620697,95.1444025 L100.225173,95.1444025 C99.0880401,95.1444025 98.6784972,95.3925484 98.6784972,96.6871717 L98.6784972,96.6871717 L98.6784972,101.508004 L99.2427027,101.843431 L105.620697,101.843431 L106.194654,101.172578 L106.194654,95.8049805 L105.620697,95.1444025 L105.620697,95.1444025 Z" id="Combined-Shape"></path>
                    <path d="M107.552698,106.884746 L110.379013,109.686539 C110.619754,109.910641 110.619754,110.12582 110.379013,110.332075 L110.379013,110.332075 L108.749434,111.784503 L108.749434,119.94036 L107.552698,120.97274 L106.408805,119.94036 L98.6784972,119.94036 L96.7337844,120.609722 L96.7337844,120.609722 L96.7345341,109.680561 C96.7445297,109.600851 96.8544818,108.724048 97.0643904,107.05015 L97.0643904,107.05015 L99.4207754,108.721081 L105.833543,108.721081 L107.552698,106.884746 Z M106.346466,110.443161 L99.4853547,110.443161 L99.4853547,118.026495 L106.346466,118.026495 L106.346466,110.443161 Z" id="Combined-Shape"></path>
                    <path d="M213.51922,75.2940368 L219.300013,79.443811 C219.71501,79.8286795 219.71501,80.1982232 219.300013,80.552442 L219.300013,80.552442 L215.892765,83.8301299 L215.892765,108.864009 L213.829792,110.636998 L211.112488,109.065664 L185.878345,109.065664 L182.525986,110.215212 L182.525986,110.215212 L182.525986,80.4287821 C182.525986,80.4287821 182.184744,78.816536 181.806688,77.0690152 C181.568192,75.9665941 182.109174,75.600569 183.429635,75.9709399 L183.429635,75.9709399 L187.157908,78.7707231 L209.97709,78.7707231 L213.51922,75.2940368 Z M211.429799,81.1931613 L186.874244,81.1931613 L186.874244,105.748717 L211.429799,105.748717 L211.429799,81.1931613 Z" id="Combined-Shape-Copy"></path>
                    <path d="M252.089893,103.919944 L256.050963,106.895852 C256.32013,107.143589 256.32013,107.381462 256.050963,107.60947 L256.050963,107.60947 L254.791406,109.010097 L254.791406,127.707961 L250.224157,127.707961 L250.224157,124.560668 L239.088039,124.560668 L239.088039,127.707961 L234.320722,127.707961 L234.320722,127.707961 L234.320722,105.098284 C234.320722,104.859421 234.516091,104.73999 234.906829,104.73999 L234.906829,104.73999 L237.324989,106.542189 L249.746688,106.542189 L252.089893,103.919944 Z M250.429799,109.359828 L238.874244,109.359828 L238.874244,121.637606 L250.429799,121.637606 L250.429799,109.359828 Z" id="Combined-Shape-Copy-2"></path>
                    <path d="M287.212861,102.068794 L292.784973,105.480586 C293.126223,105.758881 293.126223,106.026095 292.784973,106.282227 L292.784973,106.282227 L290.606141,108.464049 L290.606141,127.774232 L285.876843,127.707961 L285.876843,124.745617 L265.960542,124.745617 L265.960542,127.707961 L261.684601,127.707961 L261.684601,127.707961 L261.684601,104.915693 C261.684601,104.915693 262.249978,104.297013 263.380732,103.059653 C263.569582,102.793192 263.924732,102.752085 264.446182,102.936332 L264.446182,102.936332 L266.492023,104.915693 L283.546413,104.915693 L287.212861,102.068794 Z M285.818688,107.554272 L265.957577,107.554272 L265.957577,121.637606 L285.818688,121.637606 L285.818688,107.554272 Z" id="Combined-Shape-Copy-3"></path>
                    <rect id="Rectangle" x="186.152021" y="92.0264947" width="26" height="2.88888889"></rect>
                </g>
            </g>
        </g>
    </g>
</svg>